<svg width="1366" height="768" viewBox="0 0 1366 768" fill="none" xmlns="http://www.w3.org/2000/svg">
<g clip-path="url(#clip0)">
<path d="M1392.3 607.5C1392.3 607.5 1322 615.4 1226.9 624.2C1154.6 630.8 1068 637.9 987 642.2C886 647.6 793.7 648.9 748.5 639.8C619.2 613.9 457.6 575.1 341.2 607.5C224.8 639.8 -14 620.8 -14 620.8" stroke="#0A2227" stroke-width="16.5389" stroke-miterlimit="10" stroke-linejoin="round"/>
<path d="M1226.9 624.2L1055.5 717.4" stroke="#0A2227" stroke-width="16.5389" stroke-miterlimit="10" stroke-linejoin="round"/>
<path d="M507.099 595.2L380.199 509.4" stroke="#0A2227" stroke-width="16.5389" stroke-miterlimit="10" stroke-linejoin="round"/>
<path d="M583 608L485.1 717.4" stroke="#0A2227" stroke-width="16.5389" stroke-miterlimit="10" stroke-linejoin="round"/>
<path d="M341.099 607.5L266.699 513.7" stroke="#0A2227" stroke-width="16.5389" stroke-miterlimit="10" stroke-linejoin="round"/>
<path d="M134.2 626.4L72.7998 717.4" stroke="#0A2227" stroke-width="16.5389" stroke-miterlimit="10" stroke-linejoin="round"/>
<path d="M1390 288.7L1224.3 347.4L1029.7 416.4C1029.7 416.4 701.5 364.6 579.2 392.2C456.9 419.8 264.7 406 129.7 392.2C-5.3004 378.4 -18.9004 443.9 -18.9004 443.9" stroke="#0A2227" stroke-width="16.5676" stroke-miterlimit="10" stroke-linejoin="round"/>
<path d="M1224.3 347.4L1138.5 516.4" stroke="#0A2227" stroke-width="12.4257" stroke-miterlimit="10" stroke-linejoin="round"/>
<path d="M923.099 401.9L822.699 288.7" stroke="#0A2227" stroke-width="12.4257" stroke-miterlimit="10" stroke-linejoin="round"/>
<path d="M384.6 408.1L205.1 288.7" stroke="#0A2227" stroke-width="12.4257" stroke-miterlimit="10" stroke-linejoin="round"/>
<path d="M98.9994 390.3L46.3994 488.8" stroke="#0A2227" stroke-width="12.4257" stroke-miterlimit="10" stroke-linejoin="round"/>
<path d="M-14.1006 170.9C-14.1006 170.9 484.299 229.1 768.999 87.1004C907.799 17.8004 1254 170.9 1254 170.9" stroke="#0A2227" stroke-width="17.503" stroke-miterlimit="10" stroke-linecap="round" stroke-linejoin="round"/>
<path d="M142.899 182.7L299.099 98" stroke="#0A2227" stroke-width="13.1272" stroke-miterlimit="10" stroke-linecap="round" stroke-linejoin="round"/>
<path d="M394 176.1L521.4 232.8" stroke="#0A2227" stroke-width="13.1272" stroke-miterlimit="10" stroke-linecap="round" stroke-linejoin="round"/>
<path d="M1109.1 116.8L1214.7 265.3" stroke="#0A2227" stroke-width="13.1272" stroke-miterlimit="10" stroke-linecap="round" stroke-linejoin="round"/>
<path d="M1334.2 -26.7998C1334.2 -26.7998 1220.8 165.8 1109.1 288.7C997.399 411.6 1221.6 696.6 1221.6 696.6" stroke="#0A2227" stroke-width="16.5389" stroke-miterlimit="10" stroke-linejoin="round"/>
<path d="M1138.5 568L990.699 685.9" stroke="#0A2227" stroke-width="16.5389" stroke-miterlimit="10" stroke-linejoin="round"/>
<path d="M1109.1 288.7L944 531.2" stroke="#0A2227" stroke-width="16.5389" stroke-miterlimit="10" stroke-linejoin="round"/>
<path d="M1089.9 453.4L1266.3 516.4" stroke="#0A2227" stroke-width="16.5389" stroke-miterlimit="10" stroke-linejoin="round"/>
<path d="M1278.8 61.7002L1128.5 69.0002" stroke="#0A2227" stroke-width="16.5389" stroke-miterlimit="10" stroke-linejoin="round"/>
<path d="M1235.6 125.9L1278.8 265.3" stroke="#0A2227" stroke-width="16.5389" stroke-miterlimit="10" stroke-linejoin="round"/>
<path d="M1129.7 265.3L1161.9 390.3" stroke="#0A2227" stroke-width="16.5389" stroke-miterlimit="10" stroke-linejoin="round"/>
<path d="M142.899 761.5C142.899 761.5 456.399 476 443.699 319.1C430.999 162.2 411.899 90.1002 433.099 39.2002" stroke="#0A2227" stroke-width="16.5389" stroke-miterlimit="10" stroke-linejoin="round"/>
<path d="M219.6 685.9L205.1 509.4" stroke="#0A2227" stroke-width="16.5389" stroke-miterlimit="10" stroke-linejoin="round"/>
<path d="M346.5 538.3L534 453.4" stroke="#0A2227" stroke-width="16.5389" stroke-miterlimit="10" stroke-linejoin="round"/>
<path d="M438.899 367.3L365.199 232.8" stroke="#0A2227" stroke-width="16.5389" stroke-miterlimit="10" stroke-linejoin="round"/>
<path d="M434 219.4L507.1 88" stroke="#0A2227" stroke-width="16.5389" stroke-miterlimit="10" stroke-linejoin="round"/>
<path d="M-14.1006 28.7002C-14.1006 28.7002 782.099 278.9 822.799 696.6" stroke="#0A2227" stroke-width="16.5389" stroke-miterlimit="10" stroke-linejoin="round"/>
<path d="M715.3 460.9C715.3 460.9 746.8 555 734.1 761.5" stroke="#0A2227" stroke-width="16.5389" stroke-miterlimit="10" stroke-linejoin="round"/>
<path d="M537.8 300.1C537.8 300.1 840.1 384 982.1 348.4" stroke="#0A2227" stroke-width="16.5389" stroke-miterlimit="10" stroke-linejoin="round"/>
<path d="M134.199 83.7002C134.199 83.7002 335.499 238.6 329.099 473.9" stroke="#0A2227" stroke-width="16.5389" stroke-miterlimit="10" stroke-linejoin="round"/>
<path d="M46.3994 49.6002C46.3994 49.6002 535.399 136.8 715.299 39.2002" stroke="#0A2227" stroke-width="16.5389" stroke-miterlimit="10" stroke-linejoin="round"/>
<path d="M990.7 -26.7998C990.7 -26.7998 835.7 328.9 966.8 761.5" stroke="#0A2227" stroke-width="16.5389" stroke-miterlimit="10" stroke-linejoin="round"/>
<path d="M923.099 553.7C923.099 553.7 911.799 646.5 822.699 761.4" stroke="#0A2227" stroke-width="16.5389" stroke-miterlimit="10" stroke-linejoin="round"/>
<path d="M943.999 128.2C943.999 128.2 940.899 222.5 1055.5 509.4" stroke="#0A2227" stroke-width="16.5389" stroke-miterlimit="10" stroke-linejoin="round"/>
<path d="M975.1 15C975.1 15 823.6 223.5 715.3 278.8" stroke="#0A2227" stroke-width="16.5389" stroke-miterlimit="10" stroke-linejoin="round"/>
<path d="M833.999 182.7L640.699 204.5" stroke="#0A2227" stroke-width="16.5389" stroke-miterlimit="10" stroke-linejoin="round"/>
<path d="M780.8 232.8L822.7 488.8" stroke="#0A2227" stroke-width="16.5389" stroke-miterlimit="10" stroke-linejoin="round"/>
<path d="M-14.1006 265.3L640.699 560.6" stroke="#0A2227" stroke-width="16.5389" stroke-miterlimit="10" stroke-linejoin="round"/>
<path d="M104.6 318.8L165.4 538.3" stroke="#0A2227" stroke-width="16.5389" stroke-miterlimit="10" stroke-linejoin="round"/>
<path d="M537.8 513.7L760 439.5" stroke="#0A2227" stroke-width="16.5389" stroke-miterlimit="10" stroke-linejoin="round"/>
<path d="M583 538.3L619.9 717.4" stroke="#0A2227" stroke-width="16.5389" stroke-miterlimit="10" stroke-linejoin="round"/>
<path d="M189.6 357.2L365.2 717.4" stroke="#0A2227" stroke-width="16.5389" stroke-miterlimit="10" stroke-linejoin="round"/>
<path d="M329.3 646.4L457.7 662.7" stroke="#0A2227" stroke-width="16.5389" stroke-miterlimit="10" stroke-linejoin="round"/>
<path d="M498.5 111.4C498.5 111.4 441 38.3998 622.9 -24.7002C622.9 -24.7002 694.1 84.6998 498.5 111.4Z" fill="#0A2227" stroke="#0A2227" stroke-miterlimit="10"/>
<path d="M1140.2 372.5C1140.2 372.5 1193.8 296.6 1306 453.1C1306 453 1221.3 552.4 1140.2 372.5Z" fill="#0A2227" stroke="#0A2227" stroke-miterlimit="10"/>
<path d="M510.7 476C510.7 476 469.1 392.9 660 367.9C660 367.8 707.7 489.4 510.7 476Z" fill="#0A2227" stroke="#0A2227" stroke-miterlimit="10"/>
<path d="M42.4998 482.7C42.4998 482.7 106.1 467 93.7998 602.1C93.7998 602.1 2.7998 616 42.4998 482.7Z" fill="#0A2227" stroke="#0A2227" stroke-miterlimit="10"/>
<path d="M1175.3 59.9998C1175.3 59.9998 1203.3 148.6 1010.9 143.4C1010.9 143.5 982.9 15.8998 1175.3 59.9998Z" fill="#0A2227" stroke="#0A2227" stroke-miterlimit="10"/>
</g>
<defs>
<clipPath id="clip0">
<rect x="-27" y="-31" width="1420.2" height="798.6" fill="white"/>
</clipPath>
</defs>
</svg>
