<svg width="1366" height="761" viewBox="0 0 1366 761" fill="none" xmlns="http://www.w3.org/2000/svg">
<g clip-path="url(#clip0)">
<path d="M1392.3 600.5C1392.3 600.5 1322 608.4 1226.9 617.2C1154.6 623.8 1068 630.9 987 635.2C886 640.6 793.7 641.9 748.5 632.8C619.2 606.9 457.6 568.1 341.2 600.5C224.8 632.8 -14 613.8 -14 613.8" stroke="#0A2227" stroke-width="16.5389" stroke-miterlimit="10" stroke-linejoin="round"/>
<path d="M1226.9 617.2L1055.5 710.4" stroke="#0A2227" stroke-width="16.5389" stroke-miterlimit="10" stroke-linejoin="round"/>
<path d="M507.099 588.2L380.199 502.4" stroke="#0A2227" stroke-width="16.5389" stroke-miterlimit="10" stroke-linejoin="round"/>
<path d="M583 601L485.1 710.4" stroke="#0A2227" stroke-width="16.5389" stroke-miterlimit="10" stroke-linejoin="round"/>
<path d="M341.099 600.5L266.699 506.7" stroke="#0A2227" stroke-width="16.5389" stroke-miterlimit="10" stroke-linejoin="round"/>
<path d="M134.2 619.4L72.7998 710.4" stroke="#0A2227" stroke-width="16.5389" stroke-miterlimit="10" stroke-linejoin="round"/>
<path d="M1390 281.7L1224.3 340.4L1029.7 409.4C1029.7 409.4 701.5 357.6 579.2 385.2C456.9 412.8 264.7 399 129.7 385.2C-5.3004 371.4 -18.9004 436.9 -18.9004 436.9" stroke="#0A2227" stroke-width="16.5676" stroke-miterlimit="10" stroke-linejoin="round"/>
<path d="M1224.3 340.4L1138.5 509.4" stroke="#0A2227" stroke-width="12.4257" stroke-miterlimit="10" stroke-linejoin="round"/>
<path d="M923.099 394.9L822.699 281.7" stroke="#0A2227" stroke-width="12.4257" stroke-miterlimit="10" stroke-linejoin="round"/>
<path d="M384.6 401.1L205.1 281.7" stroke="#0A2227" stroke-width="12.4257" stroke-miterlimit="10" stroke-linejoin="round"/>
<path d="M98.9994 383.3L46.3994 481.8" stroke="#0A2227" stroke-width="12.4257" stroke-miterlimit="10" stroke-linejoin="round"/>
<path d="M-14.1006 163.9C-14.1006 163.9 484.299 222.1 768.999 80.1004C907.799 10.8004 1254 163.9 1254 163.9" stroke="#0A2227" stroke-width="17.503" stroke-miterlimit="10" stroke-linecap="round" stroke-linejoin="round"/>
<path d="M142.899 175.7L299.099 91" stroke="#0A2227" stroke-width="13.1272" stroke-miterlimit="10" stroke-linecap="round" stroke-linejoin="round"/>
<path d="M394 169.1L521.4 225.8" stroke="#0A2227" stroke-width="13.1272" stroke-miterlimit="10" stroke-linecap="round" stroke-linejoin="round"/>
<path d="M1109.1 109.8L1214.7 258.3" stroke="#0A2227" stroke-width="13.1272" stroke-miterlimit="10" stroke-linecap="round" stroke-linejoin="round"/>
<path d="M1334.2 -33.7998C1334.2 -33.7998 1220.8 158.8 1109.1 281.7C997.399 404.6 1221.6 689.6 1221.6 689.6" stroke="#0A2227" stroke-width="16.5389" stroke-miterlimit="10" stroke-linejoin="round"/>
<path d="M1138.5 561L990.699 678.9" stroke="#0A2227" stroke-width="16.5389" stroke-miterlimit="10" stroke-linejoin="round"/>
<path d="M1109.1 281.7L944 524.2" stroke="#0A2227" stroke-width="16.5389" stroke-miterlimit="10" stroke-linejoin="round"/>
<path d="M1089.9 446.4L1266.3 509.4" stroke="#0A2227" stroke-width="16.5389" stroke-miterlimit="10" stroke-linejoin="round"/>
<path d="M1278.8 54.7002L1128.5 62.0002" stroke="#0A2227" stroke-width="16.5389" stroke-miterlimit="10" stroke-linejoin="round"/>
<path d="M1235.6 118.9L1278.8 258.3" stroke="#0A2227" stroke-width="16.5389" stroke-miterlimit="10" stroke-linejoin="round"/>
<path d="M1129.7 258.3L1161.9 383.3" stroke="#0A2227" stroke-width="16.5389" stroke-miterlimit="10" stroke-linejoin="round"/>
<path d="M142.899 754.5C142.899 754.5 456.399 469 443.699 312.1C430.999 155.2 411.899 83.1002 433.099 32.2002" stroke="#0A2227" stroke-width="16.5389" stroke-miterlimit="10" stroke-linejoin="round"/>
<path d="M219.6 678.9L205.1 502.4" stroke="#0A2227" stroke-width="16.5389" stroke-miterlimit="10" stroke-linejoin="round"/>
<path d="M346.5 531.3L534 446.4" stroke="#0A2227" stroke-width="16.5389" stroke-miterlimit="10" stroke-linejoin="round"/>
<path d="M438.899 360.3L365.199 225.8" stroke="#0A2227" stroke-width="16.5389" stroke-miterlimit="10" stroke-linejoin="round"/>
<path d="M434 212.4L507.1 81" stroke="#0A2227" stroke-width="16.5389" stroke-miterlimit="10" stroke-linejoin="round"/>
<path d="M-14.1006 21.7002C-14.1006 21.7002 782.099 271.9 822.799 689.6" stroke="#0A2227" stroke-width="16.5389" stroke-miterlimit="10" stroke-linejoin="round"/>
<path d="M715.3 453.9C715.3 453.9 746.8 548 734.1 754.5" stroke="#0A2227" stroke-width="16.5389" stroke-miterlimit="10" stroke-linejoin="round"/>
<path d="M537.8 293.1C537.8 293.1 840.1 377 982.1 341.4" stroke="#0A2227" stroke-width="16.5389" stroke-miterlimit="10" stroke-linejoin="round"/>
<path d="M134.199 76.7002C134.199 76.7002 335.499 231.6 329.099 466.9" stroke="#0A2227" stroke-width="16.5389" stroke-miterlimit="10" stroke-linejoin="round"/>
<path d="M46.3994 42.6002C46.3994 42.6002 535.399 129.8 715.299 32.2002" stroke="#0A2227" stroke-width="16.5389" stroke-miterlimit="10" stroke-linejoin="round"/>
<path d="M990.7 -33.7998C990.7 -33.7998 835.7 321.9 966.8 754.5" stroke="#0A2227" stroke-width="16.5389" stroke-miterlimit="10" stroke-linejoin="round"/>
<path d="M923.099 546.7C923.099 546.7 911.799 639.5 822.699 754.4" stroke="#0A2227" stroke-width="16.5389" stroke-miterlimit="10" stroke-linejoin="round"/>
<path d="M943.999 121.2C943.999 121.2 940.899 215.5 1055.5 502.4" stroke="#0A2227" stroke-width="16.5389" stroke-miterlimit="10" stroke-linejoin="round"/>
<path d="M975.1 8C975.1 8 823.6 216.5 715.3 271.8" stroke="#0A2227" stroke-width="16.5389" stroke-miterlimit="10" stroke-linejoin="round"/>
<path d="M833.999 175.7L640.699 197.5" stroke="#0A2227" stroke-width="16.5389" stroke-miterlimit="10" stroke-linejoin="round"/>
<path d="M780.8 225.8L822.7 481.8" stroke="#0A2227" stroke-width="16.5389" stroke-miterlimit="10" stroke-linejoin="round"/>
<path d="M-14.1006 258.3L640.699 553.6" stroke="#0A2227" stroke-width="16.5389" stroke-miterlimit="10" stroke-linejoin="round"/>
<path d="M104.6 311.8L165.4 531.3" stroke="#0A2227" stroke-width="16.5389" stroke-miterlimit="10" stroke-linejoin="round"/>
<path d="M537.8 506.7L760 432.5" stroke="#0A2227" stroke-width="16.5389" stroke-miterlimit="10" stroke-linejoin="round"/>
<path d="M583 531.3L619.9 710.4" stroke="#0A2227" stroke-width="16.5389" stroke-miterlimit="10" stroke-linejoin="round"/>
<path d="M189.6 350.2L365.2 710.4" stroke="#0A2227" stroke-width="16.5389" stroke-miterlimit="10" stroke-linejoin="round"/>
<path d="M329.3 639.4L457.7 655.7" stroke="#0A2227" stroke-width="16.5389" stroke-miterlimit="10" stroke-linejoin="round"/>
<path d="M498.5 104.4C498.5 104.4 441 31.3998 622.9 -31.7002C622.9 -31.7002 694.1 77.6998 498.5 104.4Z" fill="#0A2227" stroke="#0A2227" stroke-miterlimit="10"/>
<path d="M1140.2 365.5C1140.2 365.5 1193.8 289.6 1306 446.1C1306 446 1221.3 545.4 1140.2 365.5Z" fill="#0A2227" stroke="#0A2227" stroke-miterlimit="10"/>
<path d="M510.7 469C510.7 469 469.1 385.9 660 360.9C660 360.8 707.7 482.4 510.7 469Z" fill="#0A2227" stroke="#0A2227" stroke-miterlimit="10"/>
<path d="M42.4998 475.7C42.4998 475.7 106.1 460 93.7998 595.1C93.7998 595.1 2.7998 609 42.4998 475.7Z" fill="#0A2227" stroke="#0A2227" stroke-miterlimit="10"/>
<path d="M1175.3 52.9998C1175.3 52.9998 1203.3 141.6 1010.9 136.4C1010.9 136.5 982.9 8.89985 1175.3 52.9998Z" fill="#0A2227" stroke="#0A2227" stroke-miterlimit="10"/>
</g>
<defs>
<clipPath id="clip0">
<rect x="-27" y="-38" width="1420.2" height="798.6" fill="white"/>
</clipPath>
</defs>
</svg>
