<svg width="1366" height="768" viewBox="0 0 1366 768" fill="none" xmlns="http://www.w3.org/2000/svg">
<g clip-path="url(#clip0)">
<path d="M-7.99976 617.1C-7.99976 617.1 60.5002 624.8 153.1 633.3C223.5 639.8 307.9 646.6 386.9 650.9C485.3 656.2 575.2 657.4 619.3 648.6C745.3 623.4 902.8 585.6 1016.1 617.1C1129.4 648.6 1362.2 630 1362.2 630" stroke="#7F7E3C" stroke-width="16.113" stroke-miterlimit="10" stroke-linejoin="round"/>
<path d="M153.1 633.3L320 724.1" stroke="#7F7E3C" stroke-width="16.113" stroke-miterlimit="10" stroke-linejoin="round"/>
<path d="M854.3 605.1L978 521.5" stroke="#7F7E3C" stroke-width="16.113" stroke-miterlimit="10" stroke-linejoin="round"/>
<path d="M780.5 617.5L875.8 724.1" stroke="#7F7E3C" stroke-width="16.113" stroke-miterlimit="10" stroke-linejoin="round"/>
<path d="M1016.1 617.1L1088.5 525.7" stroke="#7F7E3C" stroke-width="16.113" stroke-miterlimit="10" stroke-linejoin="round"/>
<path d="M1217.6 635.4L1277.5 724.1" stroke="#7F7E3C" stroke-width="16.113" stroke-miterlimit="10" stroke-linejoin="round"/>
<path d="M-5.80017 306.4L155.6 363.6L345.2 430.8C345.2 430.8 665 380.4 784.1 407.3C903.2 434.2 1090.5 420.7 1222.1 407.3C1353.7 393.9 1366.8 457.7 1366.8 457.7" stroke="#7F7E3C" stroke-width="16.141" stroke-miterlimit="10" stroke-linejoin="round"/>
<path d="M155.6 363.6L239.2 528.3" stroke="#7F7E3C" stroke-width="12.1058" stroke-miterlimit="10" stroke-linejoin="round"/>
<path d="M449 416.7L546.8 306.4" stroke="#7F7E3C" stroke-width="12.1058" stroke-miterlimit="10" stroke-linejoin="round"/>
<path d="M973.7 422.8L1148.5 306.4" stroke="#7F7E3C" stroke-width="12.1058" stroke-miterlimit="10" stroke-linejoin="round"/>
<path d="M1252 405.5L1303.2 501.4" stroke="#7F7E3C" stroke-width="12.1058" stroke-miterlimit="10" stroke-linejoin="round"/>
<path d="M1362.2 191.7C1362.2 191.7 876.6 248.4 599.3 110C464 42.4999 126.8 191.7 126.8 191.7" stroke="#7F7E3C" stroke-width="17.0523" stroke-miterlimit="10" stroke-linecap="round" stroke-linejoin="round"/>
<path d="M1209.2 203.2L1057 120.6" stroke="#7F7E3C" stroke-width="12.7892" stroke-miterlimit="10" stroke-linecap="round" stroke-linejoin="round"/>
<path d="M964.6 196.8L840.4 252" stroke="#7F7E3C" stroke-width="12.7892" stroke-miterlimit="10" stroke-linecap="round" stroke-linejoin="round"/>
<path d="M267.899 139L165 283.6" stroke="#7F7E3C" stroke-width="12.7892" stroke-miterlimit="10" stroke-linecap="round" stroke-linejoin="round"/>
<path d="M48.6003 -0.899902C48.6003 -0.899902 159.1 186.7 267.9 306.5C376.7 426.3 158.3 703.9 158.3 703.9" stroke="#7F7E3C" stroke-width="16.113" stroke-miterlimit="10" stroke-linejoin="round"/>
<path d="M239.2 578.5L383.2 693.5" stroke="#7F7E3C" stroke-width="16.113" stroke-miterlimit="10" stroke-linejoin="round"/>
<path d="M267.9 306.4L428.7 542.7" stroke="#7F7E3C" stroke-width="16.113" stroke-miterlimit="10" stroke-linejoin="round"/>
<path d="M286.6 467L114.7 528.3" stroke="#7F7E3C" stroke-width="16.113" stroke-miterlimit="10" stroke-linejoin="round"/>
<path d="M102.6 85.3003L249 92.5003" stroke="#7F7E3C" stroke-width="16.113" stroke-miterlimit="10" stroke-linejoin="round"/>
<path d="M144.6 147.8L102.6 283.6" stroke="#7F7E3C" stroke-width="16.113" stroke-miterlimit="10" stroke-linejoin="round"/>
<path d="M247.8 283.6L216.4 405.5" stroke="#7F7E3C" stroke-width="16.113" stroke-miterlimit="10" stroke-linejoin="round"/>
<path d="M1209.2 767.1C1209.2 767.1 903.7 489 916.1 336.1C928.5 183.2 947.1 113 926.4 63.3999" stroke="#7F7E3C" stroke-width="16.113" stroke-miterlimit="10" stroke-linejoin="round"/>
<path d="M1134.5 693.5L1148.5 521.5" stroke="#7F7E3C" stroke-width="16.113" stroke-miterlimit="10" stroke-linejoin="round"/>
<path d="M1010.8 549.7L828.1 467" stroke="#7F7E3C" stroke-width="16.113" stroke-miterlimit="10" stroke-linejoin="round"/>
<path d="M920.8 383.1L992.6 252" stroke="#7F7E3C" stroke-width="16.113" stroke-miterlimit="10" stroke-linejoin="round"/>
<path d="M925.6 238.9L854.3 111" stroke="#7F7E3C" stroke-width="16.113" stroke-miterlimit="10" stroke-linejoin="round"/>
<path d="M1362.2 53.1001C1362.2 53.1001 586.5 296.9 546.9 703.8" stroke="#7F7E3C" stroke-width="16.113" stroke-miterlimit="10" stroke-linejoin="round"/>
<path d="M651.5 474.3C651.5 474.3 620.8 566 633.2 767.1" stroke="#7F7E3C" stroke-width="16.113" stroke-miterlimit="10" stroke-linejoin="round"/>
<path d="M824.399 317.6C824.399 317.6 529.899 399.3 391.499 364.6" stroke="#7F7E3C" stroke-width="16.113" stroke-miterlimit="10" stroke-linejoin="round"/>
<path d="M1217.6 106.7C1217.6 106.7 1021.5 257.6 1027.7 486.9" stroke="#7F7E3C" stroke-width="16.113" stroke-miterlimit="10" stroke-linejoin="round"/>
<path d="M1303.2 73.6C1303.2 73.6 826.8 158.5 651.5 63.5" stroke="#7F7E3C" stroke-width="16.113" stroke-miterlimit="10" stroke-linejoin="round"/>
<path d="M383.2 -0.899902C383.2 -0.899902 534.2 345.6 406.5 767.1" stroke="#7F7E3C" stroke-width="16.113" stroke-miterlimit="10" stroke-linejoin="round"/>
<path d="M449 564.7C449 564.7 460 655.1 546.8 767.1" stroke="#7F7E3C" stroke-width="16.113" stroke-miterlimit="10" stroke-linejoin="round"/>
<path d="M428.7 150.1C428.7 150.1 431.7 241.9 320.1 521.5" stroke="#7F7E3C" stroke-width="16.113" stroke-miterlimit="10" stroke-linejoin="round"/>
<path d="M398.4 39.8999C398.4 39.8999 546 243.1 651.5 296.9" stroke="#7F7E3C" stroke-width="16.113" stroke-miterlimit="10" stroke-linejoin="round"/>
<path d="M535.9 203.2L724.2 224.4" stroke="#7F7E3C" stroke-width="16.113" stroke-miterlimit="10" stroke-linejoin="round"/>
<path d="M587.7 252L546.8 501.4" stroke="#7F7E3C" stroke-width="16.113" stroke-miterlimit="10" stroke-linejoin="round"/>
<path d="M1362.2 283.6L724.2 571.4" stroke="#7F7E3C" stroke-width="16.113" stroke-miterlimit="10" stroke-linejoin="round"/>
<path d="M1246.5 335.8L1187.2 549.7" stroke="#7F7E3C" stroke-width="16.113" stroke-miterlimit="10" stroke-linejoin="round"/>
<path d="M824.399 525.7L607.999 453.4" stroke="#7F7E3C" stroke-width="16.113" stroke-miterlimit="10" stroke-linejoin="round"/>
<path d="M780.5 549.7L744.5 724.1" stroke="#7F7E3C" stroke-width="16.113" stroke-miterlimit="10" stroke-linejoin="round"/>
<path d="M1163.6 373.2L992.6 724.1" stroke="#7F7E3C" stroke-width="16.113" stroke-miterlimit="10" stroke-linejoin="round"/>
<path d="M1027.6 655L902.5 670.8" stroke="#7F7E3C" stroke-width="16.113" stroke-miterlimit="10" stroke-linejoin="round"/>
<path d="M862.7 133.7C862.7 133.7 918.7 62.6001 741.5 1.1001C741.5 1.2001 672.1 107.8 862.7 133.7Z" fill="#7F7E3C"/>
<path d="M237.6 388.1C237.6 388.1 185.3 314.2 76.0996 466.6C75.9996 466.6 158.5 563.4 237.6 388.1Z" fill="#7F7E3C"/>
<path d="M850.8 488.9C850.8 488.9 891.3 407.9 705.3 383.6C705.4 383.6 659 502 850.8 488.9Z" fill="#7F7E3C"/>
<path d="M1307 495.5C1307 495.5 1245.1 480.2 1257.1 611.8C1257.1 611.8 1345.7 625.4 1307 495.5Z" fill="#7F7E3C"/>
<path d="M203.3 83.7C203.3 83.7 176 170 363.5 165C363.5 165 390.8 40.7 203.3 83.7Z" fill="#7F7E3C"/>
</g>
<defs>
<clipPath id="clip0">
<rect width="1383.7" height="778" transform="matrix(-1 0 0 1 1374.7 -5)" fill="white"/>
</clipPath>
</defs>
</svg>
