<svg width="1366" height="768" viewBox="0 0 1366 768" fill="none" xmlns="http://www.w3.org/2000/svg">
<g clip-path="url(#clip0)">
<path d="M1373.7 617.1C1373.7 617.1 1305.2 624.8 1212.6 633.3C1142.2 639.8 1057.8 646.6 978.8 650.9C880.4 656.2 790.5 657.4 746.4 648.6C620.4 623.4 462.9 585.6 349.6 617.1C236.3 648.6 3.5 630 3.5 630" stroke="#7F7E3C" stroke-width="16.113" stroke-miterlimit="10" stroke-linejoin="round"/>
<path d="M1212.6 633.3L1045.7 724.1" stroke="#7F7E3C" stroke-width="16.113" stroke-miterlimit="10" stroke-linejoin="round"/>
<path d="M511.4 605.1L387.7 521.5" stroke="#7F7E3C" stroke-width="16.113" stroke-miterlimit="10" stroke-linejoin="round"/>
<path d="M585.2 617.5L489.9 724.1" stroke="#7F7E3C" stroke-width="16.113" stroke-miterlimit="10" stroke-linejoin="round"/>
<path d="M349.6 617.1L277.2 525.7" stroke="#7F7E3C" stroke-width="16.113" stroke-miterlimit="10" stroke-linejoin="round"/>
<path d="M148.1 635.4L88.2002 724.1" stroke="#7F7E3C" stroke-width="16.113" stroke-miterlimit="10" stroke-linejoin="round"/>
<path d="M1371.5 306.4L1210.1 363.6L1020.5 430.8C1020.5 430.8 700.7 380.4 581.6 407.3C462.5 434.2 275.2 420.7 143.6 407.3C12.0004 393.9 -1.09961 457.7 -1.09961 457.7" stroke="#7F7E3C" stroke-width="16.141" stroke-miterlimit="10" stroke-linejoin="round"/>
<path d="M1210.1 363.6L1126.5 528.3" stroke="#7F7E3C" stroke-width="12.1058" stroke-miterlimit="10" stroke-linejoin="round"/>
<path d="M916.7 416.7L818.9 306.4" stroke="#7F7E3C" stroke-width="12.1058" stroke-miterlimit="10" stroke-linejoin="round"/>
<path d="M392 422.8L217.2 306.4" stroke="#7F7E3C" stroke-width="12.1058" stroke-miterlimit="10" stroke-linejoin="round"/>
<path d="M113.7 405.5L62.5 501.4" stroke="#7F7E3C" stroke-width="12.1058" stroke-miterlimit="10" stroke-linejoin="round"/>
<path d="M3.5 191.7C3.5 191.7 489.1 248.4 766.4 110C901.7 42.4999 1238.9 191.7 1238.9 191.7" stroke="#7F7E3C" stroke-width="17.0523" stroke-miterlimit="10" stroke-linecap="round" stroke-linejoin="round"/>
<path d="M156.5 203.2L308.7 120.6" stroke="#7F7E3C" stroke-width="12.7892" stroke-miterlimit="10" stroke-linecap="round" stroke-linejoin="round"/>
<path d="M401.101 196.8L525.301 252" stroke="#7F7E3C" stroke-width="12.7892" stroke-miterlimit="10" stroke-linecap="round" stroke-linejoin="round"/>
<path d="M1097.8 139L1200.7 283.6" stroke="#7F7E3C" stroke-width="12.7892" stroke-miterlimit="10" stroke-linecap="round" stroke-linejoin="round"/>
<path d="M1317.1 -0.899902C1317.1 -0.899902 1206.6 186.7 1097.8 306.5C989.001 426.3 1207.4 703.9 1207.4 703.9" stroke="#7F7E3C" stroke-width="16.113" stroke-miterlimit="10" stroke-linejoin="round"/>
<path d="M1126.5 578.5L982.5 693.5" stroke="#7F7E3C" stroke-width="16.113" stroke-miterlimit="10" stroke-linejoin="round"/>
<path d="M1097.8 306.4L937 542.7" stroke="#7F7E3C" stroke-width="16.113" stroke-miterlimit="10" stroke-linejoin="round"/>
<path d="M1079.1 467L1251 528.3" stroke="#7F7E3C" stroke-width="16.113" stroke-miterlimit="10" stroke-linejoin="round"/>
<path d="M1263.1 85.3003L1116.7 92.5003" stroke="#7F7E3C" stroke-width="16.113" stroke-miterlimit="10" stroke-linejoin="round"/>
<path d="M1221.1 147.8L1263.1 283.6" stroke="#7F7E3C" stroke-width="16.113" stroke-miterlimit="10" stroke-linejoin="round"/>
<path d="M1117.9 283.6L1149.3 405.5" stroke="#7F7E3C" stroke-width="16.113" stroke-miterlimit="10" stroke-linejoin="round"/>
<path d="M156.5 767.1C156.5 767.1 462 489 449.6 336.1C437.2 183.2 418.6 113 439.3 63.3999" stroke="#7F7E3C" stroke-width="16.113" stroke-miterlimit="10" stroke-linejoin="round"/>
<path d="M231.2 693.5L217.2 521.5" stroke="#7F7E3C" stroke-width="16.113" stroke-miterlimit="10" stroke-linejoin="round"/>
<path d="M354.9 549.7L537.6 467" stroke="#7F7E3C" stroke-width="16.113" stroke-miterlimit="10" stroke-linejoin="round"/>
<path d="M444.901 383.1L373.101 252" stroke="#7F7E3C" stroke-width="16.113" stroke-miterlimit="10" stroke-linejoin="round"/>
<path d="M440.101 238.9L511.401 111" stroke="#7F7E3C" stroke-width="16.113" stroke-miterlimit="10" stroke-linejoin="round"/>
<path d="M3.5 53.1001C3.5 53.1001 779.2 296.9 818.8 703.8" stroke="#7F7E3C" stroke-width="16.113" stroke-miterlimit="10" stroke-linejoin="round"/>
<path d="M714.2 474.3C714.2 474.3 744.9 566 732.5 767.1" stroke="#7F7E3C" stroke-width="16.113" stroke-miterlimit="10" stroke-linejoin="round"/>
<path d="M541.301 317.6C541.301 317.6 835.801 399.3 974.201 364.6" stroke="#7F7E3C" stroke-width="16.113" stroke-miterlimit="10" stroke-linejoin="round"/>
<path d="M148.101 106.7C148.101 106.7 344.201 257.6 338.001 486.9" stroke="#7F7E3C" stroke-width="16.113" stroke-miterlimit="10" stroke-linejoin="round"/>
<path d="M62.5 73.6C62.5 73.6 538.9 158.5 714.2 63.5" stroke="#7F7E3C" stroke-width="16.113" stroke-miterlimit="10" stroke-linejoin="round"/>
<path d="M982.501 -0.899902C982.501 -0.899902 831.501 345.6 959.201 767.1" stroke="#7F7E3C" stroke-width="16.113" stroke-miterlimit="10" stroke-linejoin="round"/>
<path d="M916.7 564.7C916.7 564.7 905.7 655.1 818.9 767.1" stroke="#7F7E3C" stroke-width="16.113" stroke-miterlimit="10" stroke-linejoin="round"/>
<path d="M937 150.1C937 150.1 934 241.9 1045.6 521.5" stroke="#7F7E3C" stroke-width="16.113" stroke-miterlimit="10" stroke-linejoin="round"/>
<path d="M967.3 39.8999C967.3 39.8999 819.7 243.1 714.2 296.9" stroke="#7F7E3C" stroke-width="16.113" stroke-miterlimit="10" stroke-linejoin="round"/>
<path d="M829.8 203.2L641.5 224.4" stroke="#7F7E3C" stroke-width="16.113" stroke-miterlimit="10" stroke-linejoin="round"/>
<path d="M778 252L818.9 501.4" stroke="#7F7E3C" stroke-width="16.113" stroke-miterlimit="10" stroke-linejoin="round"/>
<path d="M3.5 283.6L641.5 571.4" stroke="#7F7E3C" stroke-width="16.113" stroke-miterlimit="10" stroke-linejoin="round"/>
<path d="M119.2 335.8L178.5 549.7" stroke="#7F7E3C" stroke-width="16.113" stroke-miterlimit="10" stroke-linejoin="round"/>
<path d="M541.301 525.7L757.701 453.4" stroke="#7F7E3C" stroke-width="16.113" stroke-miterlimit="10" stroke-linejoin="round"/>
<path d="M585.2 549.7L621.2 724.1" stroke="#7F7E3C" stroke-width="16.113" stroke-miterlimit="10" stroke-linejoin="round"/>
<path d="M202.101 373.2L373.101 724.1" stroke="#7F7E3C" stroke-width="16.113" stroke-miterlimit="10" stroke-linejoin="round"/>
<path d="M338.101 655L463.201 670.8" stroke="#7F7E3C" stroke-width="16.113" stroke-miterlimit="10" stroke-linejoin="round"/>
<path d="M503.001 133.7C503.001 133.7 447.001 62.6001 624.201 1.1001C624.201 1.2001 693.601 107.8 503.001 133.7Z" fill="#7F7E3C"/>
<path d="M1128.1 388.1C1128.1 388.1 1180.4 314.2 1289.6 466.6C1289.7 466.6 1207.2 563.4 1128.1 388.1Z" fill="#7F7E3C"/>
<path d="M514.9 488.9C514.9 488.9 474.4 407.9 660.4 383.6C660.3 383.6 706.7 502 514.9 488.9Z" fill="#7F7E3C"/>
<path d="M58.7007 495.5C58.7007 495.5 120.601 480.2 108.601 611.8C108.601 611.8 20.0007 625.4 58.7007 495.5Z" fill="#7F7E3C"/>
<path d="M1162.4 83.7C1162.4 83.7 1189.7 170 1002.2 165C1002.2 165 974.9 40.7 1162.4 83.7Z" fill="#7F7E3C"/>
</g>
<defs>
<clipPath id="clip0">
<rect x="-9" y="-5" width="1383.7" height="778" fill="white"/>
</clipPath>
</defs>
</svg>
