<svg width="1366" height="763" viewBox="0 0 1366 763" fill="none" xmlns="http://www.w3.org/2000/svg">
<g clip-path="url(#clip0)">
<path d="M1416.3 638.5C1416.3 638.5 1346 646.4 1250.9 655.2C1178.6 661.8 1092 668.9 1011 673.2C910 678.6 817.7 679.9 772.5 670.8C643.2 644.9 481.6 606.1 365.2 638.5C248.8 670.8 10 651.8 10 651.8" stroke="#0A2227" stroke-width="16.5389" stroke-miterlimit="10" stroke-linejoin="round"/>
<path d="M1250.9 655.2L1079.5 748.4" stroke="#0A2227" stroke-width="16.5389" stroke-miterlimit="10" stroke-linejoin="round"/>
<path d="M531.099 626.2L404.199 540.4" stroke="#0A2227" stroke-width="16.5389" stroke-miterlimit="10" stroke-linejoin="round"/>
<path d="M607 639L509.1 748.4" stroke="#0A2227" stroke-width="16.5389" stroke-miterlimit="10" stroke-linejoin="round"/>
<path d="M365.099 638.5L290.699 544.7" stroke="#0A2227" stroke-width="16.5389" stroke-miterlimit="10" stroke-linejoin="round"/>
<path d="M158.2 657.4L96.7998 748.4" stroke="#0A2227" stroke-width="16.5389" stroke-miterlimit="10" stroke-linejoin="round"/>
<path d="M1414 319.7L1248.3 378.4L1053.7 447.4C1053.7 447.4 725.5 395.6 603.2 423.2C480.9 450.8 288.7 437 153.7 423.2C18.6996 409.4 5.09961 474.9 5.09961 474.9" stroke="#0A2227" stroke-width="16.5676" stroke-miterlimit="10" stroke-linejoin="round"/>
<path d="M1248.3 378.4L1162.5 547.4" stroke="#0A2227" stroke-width="12.4257" stroke-miterlimit="10" stroke-linejoin="round"/>
<path d="M947.099 432.9L846.699 319.7" stroke="#0A2227" stroke-width="12.4257" stroke-miterlimit="10" stroke-linejoin="round"/>
<path d="M408.6 439.1L229.1 319.7" stroke="#0A2227" stroke-width="12.4257" stroke-miterlimit="10" stroke-linejoin="round"/>
<path d="M122.999 421.3L70.3994 519.8" stroke="#0A2227" stroke-width="12.4257" stroke-miterlimit="10" stroke-linejoin="round"/>
<path d="M9.89941 201.9C9.89941 201.9 508.299 260.1 792.999 118.1C931.799 48.8004 1278 201.9 1278 201.9" stroke="#0A2227" stroke-width="17.503" stroke-miterlimit="10" stroke-linecap="round" stroke-linejoin="round"/>
<path d="M166.899 213.7L323.099 129" stroke="#0A2227" stroke-width="13.1272" stroke-miterlimit="10" stroke-linecap="round" stroke-linejoin="round"/>
<path d="M418 207.1L545.4 263.8" stroke="#0A2227" stroke-width="13.1272" stroke-miterlimit="10" stroke-linecap="round" stroke-linejoin="round"/>
<path d="M1133.1 147.8L1238.7 296.3" stroke="#0A2227" stroke-width="13.1272" stroke-miterlimit="10" stroke-linecap="round" stroke-linejoin="round"/>
<path d="M1358.2 4.2002C1358.2 4.2002 1244.8 196.8 1133.1 319.7C1021.4 442.6 1245.6 727.6 1245.6 727.6" stroke="#0A2227" stroke-width="16.5389" stroke-miterlimit="10" stroke-linejoin="round"/>
<path d="M1162.5 599L1014.7 716.9" stroke="#0A2227" stroke-width="16.5389" stroke-miterlimit="10" stroke-linejoin="round"/>
<path d="M1133.1 319.7L968 562.2" stroke="#0A2227" stroke-width="16.5389" stroke-miterlimit="10" stroke-linejoin="round"/>
<path d="M1113.9 484.4L1290.3 547.4" stroke="#0A2227" stroke-width="16.5389" stroke-miterlimit="10" stroke-linejoin="round"/>
<path d="M1302.8 92.7002L1152.5 100" stroke="#0A2227" stroke-width="16.5389" stroke-miterlimit="10" stroke-linejoin="round"/>
<path d="M1259.6 156.9L1302.8 296.3" stroke="#0A2227" stroke-width="16.5389" stroke-miterlimit="10" stroke-linejoin="round"/>
<path d="M1153.7 296.3L1185.9 421.3" stroke="#0A2227" stroke-width="16.5389" stroke-miterlimit="10" stroke-linejoin="round"/>
<path d="M166.899 792.5C166.899 792.5 480.399 507 467.699 350.1C454.999 193.2 435.899 121.1 457.099 70.2002" stroke="#0A2227" stroke-width="16.5389" stroke-miterlimit="10" stroke-linejoin="round"/>
<path d="M243.6 716.9L229.1 540.4" stroke="#0A2227" stroke-width="16.5389" stroke-miterlimit="10" stroke-linejoin="round"/>
<path d="M370.5 569.3L558 484.4" stroke="#0A2227" stroke-width="16.5389" stroke-miterlimit="10" stroke-linejoin="round"/>
<path d="M462.899 398.3L389.199 263.8" stroke="#0A2227" stroke-width="16.5389" stroke-miterlimit="10" stroke-linejoin="round"/>
<path d="M458 250.4L531.1 119" stroke="#0A2227" stroke-width="16.5389" stroke-miterlimit="10" stroke-linejoin="round"/>
<path d="M9.89941 59.7002C9.89941 59.7002 806.099 309.9 846.799 727.6" stroke="#0A2227" stroke-width="16.5389" stroke-miterlimit="10" stroke-linejoin="round"/>
<path d="M739.3 491.9C739.3 491.9 770.8 586 758.1 792.5" stroke="#0A2227" stroke-width="16.5389" stroke-miterlimit="10" stroke-linejoin="round"/>
<path d="M561.8 331.1C561.8 331.1 864.1 415 1006.1 379.4" stroke="#0A2227" stroke-width="16.5389" stroke-miterlimit="10" stroke-linejoin="round"/>
<path d="M158.199 114.7C158.199 114.7 359.499 269.6 353.099 504.9" stroke="#0A2227" stroke-width="16.5389" stroke-miterlimit="10" stroke-linejoin="round"/>
<path d="M70.3994 80.6002C70.3994 80.6002 559.399 167.8 739.299 70.2002" stroke="#0A2227" stroke-width="16.5389" stroke-miterlimit="10" stroke-linejoin="round"/>
<path d="M1014.7 4.2002C1014.7 4.2002 859.7 359.9 990.8 792.5" stroke="#0A2227" stroke-width="16.5389" stroke-miterlimit="10" stroke-linejoin="round"/>
<path d="M947.099 584.7C947.099 584.7 935.799 677.5 846.699 792.4" stroke="#0A2227" stroke-width="16.5389" stroke-miterlimit="10" stroke-linejoin="round"/>
<path d="M967.999 159.2C967.999 159.2 964.899 253.5 1079.5 540.4" stroke="#0A2227" stroke-width="16.5389" stroke-miterlimit="10" stroke-linejoin="round"/>
<path d="M999.1 46C999.1 46 847.6 254.5 739.3 309.8" stroke="#0A2227" stroke-width="16.5389" stroke-miterlimit="10" stroke-linejoin="round"/>
<path d="M857.999 213.7L664.699 235.5" stroke="#0A2227" stroke-width="16.5389" stroke-miterlimit="10" stroke-linejoin="round"/>
<path d="M804.8 263.8L846.7 519.8" stroke="#0A2227" stroke-width="16.5389" stroke-miterlimit="10" stroke-linejoin="round"/>
<path d="M9.89941 296.3L664.699 591.6" stroke="#0A2227" stroke-width="16.5389" stroke-miterlimit="10" stroke-linejoin="round"/>
<path d="M128.6 349.8L189.4 569.3" stroke="#0A2227" stroke-width="16.5389" stroke-miterlimit="10" stroke-linejoin="round"/>
<path d="M561.8 544.7L784 470.5" stroke="#0A2227" stroke-width="16.5389" stroke-miterlimit="10" stroke-linejoin="round"/>
<path d="M607 569.3L643.9 748.4" stroke="#0A2227" stroke-width="16.5389" stroke-miterlimit="10" stroke-linejoin="round"/>
<path d="M213.6 388.2L389.2 748.4" stroke="#0A2227" stroke-width="16.5389" stroke-miterlimit="10" stroke-linejoin="round"/>
<path d="M353.3 677.4L481.7 693.7" stroke="#0A2227" stroke-width="16.5389" stroke-miterlimit="10" stroke-linejoin="round"/>
<path d="M522.5 142.4C522.5 142.4 465 69.3998 646.9 6.2998C646.9 6.2998 718.1 115.7 522.5 142.4Z" fill="#0A2227" stroke="#0A2227" stroke-miterlimit="10"/>
<path d="M1164.2 403.5C1164.2 403.5 1217.8 327.6 1330 484.1C1330 484 1245.3 583.4 1164.2 403.5Z" fill="#0A2227" stroke="#0A2227" stroke-miterlimit="10"/>
<path d="M534.7 507C534.7 507 493.1 423.9 684 398.9C684 398.8 731.7 520.4 534.7 507Z" fill="#0A2227" stroke="#0A2227" stroke-miterlimit="10"/>
<path d="M66.4998 513.7C66.4998 513.7 130.1 498 117.8 633.1C117.8 633.1 26.7998 647 66.4998 513.7Z" fill="#0A2227" stroke="#0A2227" stroke-miterlimit="10"/>
<path d="M1199.3 90.9998C1199.3 90.9998 1227.3 179.6 1034.9 174.4C1034.9 174.5 1006.9 46.8998 1199.3 90.9998Z" fill="#0A2227" stroke="#0A2227" stroke-miterlimit="10"/>
</g>
<defs>
<clipPath id="clip0">
<rect x="-3" width="1420.2" height="798.6" fill="white"/>
</clipPath>
</defs>
</svg>
