<svg width="1366" height="740" viewBox="0 0 1366 740" fill="none" xmlns="http://www.w3.org/2000/svg">
<g clip-path="url(#clip0)">
<path d="M1373.7 622.1C1373.7 622.1 1305.2 629.8 1212.6 638.3C1142.2 644.8 1057.8 651.6 978.8 655.9C880.4 661.2 790.5 662.4 746.4 653.6C620.4 628.4 462.9 590.6 349.6 622.1C236.3 653.6 3.5 635 3.5 635" stroke="#7F7E3C" stroke-width="16.113" stroke-miterlimit="10" stroke-linejoin="round"/>
<path d="M1212.6 638.3L1045.7 729.1" stroke="#7F7E3C" stroke-width="16.113" stroke-miterlimit="10" stroke-linejoin="round"/>
<path d="M511.4 610.1L387.7 526.5" stroke="#7F7E3C" stroke-width="16.113" stroke-miterlimit="10" stroke-linejoin="round"/>
<path d="M585.2 622.5L489.9 729.1" stroke="#7F7E3C" stroke-width="16.113" stroke-miterlimit="10" stroke-linejoin="round"/>
<path d="M349.6 622.1L277.2 530.7" stroke="#7F7E3C" stroke-width="16.113" stroke-miterlimit="10" stroke-linejoin="round"/>
<path d="M148.1 640.4L88.2002 729.1" stroke="#7F7E3C" stroke-width="16.113" stroke-miterlimit="10" stroke-linejoin="round"/>
<path d="M1371.5 311.4L1210.1 368.6L1020.5 435.8C1020.5 435.8 700.7 385.4 581.6 412.3C462.5 439.2 275.2 425.7 143.6 412.3C12.0004 398.9 -1.09961 462.7 -1.09961 462.7" stroke="#7F7E3C" stroke-width="16.141" stroke-miterlimit="10" stroke-linejoin="round"/>
<path d="M1210.1 368.6L1126.5 533.3" stroke="#7F7E3C" stroke-width="12.1058" stroke-miterlimit="10" stroke-linejoin="round"/>
<path d="M916.7 421.7L818.9 311.4" stroke="#7F7E3C" stroke-width="12.1058" stroke-miterlimit="10" stroke-linejoin="round"/>
<path d="M392 427.8L217.2 311.4" stroke="#7F7E3C" stroke-width="12.1058" stroke-miterlimit="10" stroke-linejoin="round"/>
<path d="M113.7 410.5L62.5 506.4" stroke="#7F7E3C" stroke-width="12.1058" stroke-miterlimit="10" stroke-linejoin="round"/>
<path d="M3.5 196.7C3.5 196.7 489.1 253.4 766.4 115C901.7 47.4999 1238.9 196.7 1238.9 196.7" stroke="#7F7E3C" stroke-width="17.0523" stroke-miterlimit="10" stroke-linecap="round" stroke-linejoin="round"/>
<path d="M156.5 208.2L308.7 125.6" stroke="#7F7E3C" stroke-width="12.7892" stroke-miterlimit="10" stroke-linecap="round" stroke-linejoin="round"/>
<path d="M401.101 201.8L525.301 257" stroke="#7F7E3C" stroke-width="12.7892" stroke-miterlimit="10" stroke-linecap="round" stroke-linejoin="round"/>
<path d="M1097.8 144L1200.7 288.6" stroke="#7F7E3C" stroke-width="12.7892" stroke-miterlimit="10" stroke-linecap="round" stroke-linejoin="round"/>
<path d="M1317.1 4.1001C1317.1 4.1001 1206.6 191.7 1097.8 311.5C989.001 431.3 1207.4 708.9 1207.4 708.9" stroke="#7F7E3C" stroke-width="16.113" stroke-miterlimit="10" stroke-linejoin="round"/>
<path d="M1126.5 583.5L982.5 698.5" stroke="#7F7E3C" stroke-width="16.113" stroke-miterlimit="10" stroke-linejoin="round"/>
<path d="M1097.8 311.4L937 547.7" stroke="#7F7E3C" stroke-width="16.113" stroke-miterlimit="10" stroke-linejoin="round"/>
<path d="M1079.1 472L1251 533.3" stroke="#7F7E3C" stroke-width="16.113" stroke-miterlimit="10" stroke-linejoin="round"/>
<path d="M1263.1 90.3003L1116.7 97.5003" stroke="#7F7E3C" stroke-width="16.113" stroke-miterlimit="10" stroke-linejoin="round"/>
<path d="M1221.1 152.8L1263.1 288.6" stroke="#7F7E3C" stroke-width="16.113" stroke-miterlimit="10" stroke-linejoin="round"/>
<path d="M1117.9 288.6L1149.3 410.5" stroke="#7F7E3C" stroke-width="16.113" stroke-miterlimit="10" stroke-linejoin="round"/>
<path d="M156.5 772.1C156.5 772.1 462 494 449.6 341.1C437.2 188.2 418.6 118 439.3 68.3999" stroke="#7F7E3C" stroke-width="16.113" stroke-miterlimit="10" stroke-linejoin="round"/>
<path d="M231.2 698.5L217.2 526.5" stroke="#7F7E3C" stroke-width="16.113" stroke-miterlimit="10" stroke-linejoin="round"/>
<path d="M354.9 554.7L537.6 472" stroke="#7F7E3C" stroke-width="16.113" stroke-miterlimit="10" stroke-linejoin="round"/>
<path d="M444.901 388.1L373.101 257" stroke="#7F7E3C" stroke-width="16.113" stroke-miterlimit="10" stroke-linejoin="round"/>
<path d="M440.101 243.9L511.401 116" stroke="#7F7E3C" stroke-width="16.113" stroke-miterlimit="10" stroke-linejoin="round"/>
<path d="M3.5 58.1001C3.5 58.1001 779.2 301.9 818.8 708.8" stroke="#7F7E3C" stroke-width="16.113" stroke-miterlimit="10" stroke-linejoin="round"/>
<path d="M714.2 479.3C714.2 479.3 744.9 571 732.5 772.1" stroke="#7F7E3C" stroke-width="16.113" stroke-miterlimit="10" stroke-linejoin="round"/>
<path d="M541.301 322.6C541.301 322.6 835.801 404.3 974.201 369.6" stroke="#7F7E3C" stroke-width="16.113" stroke-miterlimit="10" stroke-linejoin="round"/>
<path d="M148.101 111.7C148.101 111.7 344.201 262.6 338.001 491.9" stroke="#7F7E3C" stroke-width="16.113" stroke-miterlimit="10" stroke-linejoin="round"/>
<path d="M62.5 78.6C62.5 78.6 538.9 163.5 714.2 68.5" stroke="#7F7E3C" stroke-width="16.113" stroke-miterlimit="10" stroke-linejoin="round"/>
<path d="M982.501 4.1001C982.501 4.1001 831.501 350.6 959.201 772.1" stroke="#7F7E3C" stroke-width="16.113" stroke-miterlimit="10" stroke-linejoin="round"/>
<path d="M916.7 569.7C916.7 569.7 905.7 660.1 818.9 772.1" stroke="#7F7E3C" stroke-width="16.113" stroke-miterlimit="10" stroke-linejoin="round"/>
<path d="M937 155.1C937 155.1 934 246.9 1045.6 526.5" stroke="#7F7E3C" stroke-width="16.113" stroke-miterlimit="10" stroke-linejoin="round"/>
<path d="M967.3 44.8999C967.3 44.8999 819.7 248.1 714.2 301.9" stroke="#7F7E3C" stroke-width="16.113" stroke-miterlimit="10" stroke-linejoin="round"/>
<path d="M829.8 208.2L641.5 229.4" stroke="#7F7E3C" stroke-width="16.113" stroke-miterlimit="10" stroke-linejoin="round"/>
<path d="M778 257L818.9 506.4" stroke="#7F7E3C" stroke-width="16.113" stroke-miterlimit="10" stroke-linejoin="round"/>
<path d="M3.5 288.6L641.5 576.4" stroke="#7F7E3C" stroke-width="16.113" stroke-miterlimit="10" stroke-linejoin="round"/>
<path d="M119.2 340.8L178.5 554.7" stroke="#7F7E3C" stroke-width="16.113" stroke-miterlimit="10" stroke-linejoin="round"/>
<path d="M541.301 530.7L757.701 458.4" stroke="#7F7E3C" stroke-width="16.113" stroke-miterlimit="10" stroke-linejoin="round"/>
<path d="M585.2 554.7L621.2 729.1" stroke="#7F7E3C" stroke-width="16.113" stroke-miterlimit="10" stroke-linejoin="round"/>
<path d="M202.101 378.2L373.101 729.1" stroke="#7F7E3C" stroke-width="16.113" stroke-miterlimit="10" stroke-linejoin="round"/>
<path d="M338.101 660L463.201 675.8" stroke="#7F7E3C" stroke-width="16.113" stroke-miterlimit="10" stroke-linejoin="round"/>
<path d="M503.001 138.7C503.001 138.7 447.001 67.6001 624.201 6.1001C624.201 6.2001 693.601 112.8 503.001 138.7Z" fill="#7F7E3C"/>
<path d="M1128.1 393.1C1128.1 393.1 1180.4 319.2 1289.6 471.6C1289.7 471.6 1207.2 568.4 1128.1 393.1Z" fill="#7F7E3C"/>
<path d="M514.9 493.9C514.9 493.9 474.4 412.9 660.4 388.6C660.3 388.6 706.7 507 514.9 493.9Z" fill="#7F7E3C"/>
<path d="M58.7007 500.5C58.7007 500.5 120.601 485.2 108.601 616.8C108.601 616.8 20.0007 630.4 58.7007 500.5Z" fill="#7F7E3C"/>
<path d="M1162.4 88.7C1162.4 88.7 1189.7 175 1002.2 170C1002.2 170 974.9 45.7 1162.4 88.7Z" fill="#7F7E3C"/>
</g>
<defs>
<clipPath id="clip0">
<rect x="-9" width="1383.7" height="778" fill="white"/>
</clipPath>
</defs>
</svg>
