<svg xmlns="http://www.w3.org/2000/svg" fill="none" viewBox="0 0 1366 763">
  <g stroke="#0A2227" stroke-miterlimit="10" clip-path="url(#clip0)">
    <path stroke-linejoin="round" stroke-width="16.5" d="M1416 639l-165 16c-72 7-159 14-240 18-101 6-193 7-238-2-130-26-291-65-408-32-116 32-355 13-355 13M1251 655l-171 93M531 626l-127-86M607 639l-98 109M365 639l-74-94M158 657l-61 91"/>
    <path stroke-linejoin="round" stroke-width="16.6" d="M1414 320l-166 58-194 69s-328-51-451-24c-122 28-314 14-449 0S5 475 5 475"/>
    <path stroke-linejoin="round" stroke-width="12.4" d="M1248 378l-85 169M947 433L847 320M409 439L229 320M123 421l-53 99"/>
    <path stroke-linecap="round" stroke-linejoin="round" stroke-width="17.5" d="M10 202s498 58 783-84c139-69 485 84 485 84"/>
    <path stroke-linecap="round" stroke-linejoin="round" stroke-width="13.1" d="M167 214l156-85M418 207l127 57M1133 148l106 148"/>
    <path stroke-linejoin="round" stroke-width="16.5" d="M1358 4s-113 193-225 316 113 408 113 408M1163 599l-148 118M1133 320L968 562M1114 484l176 63M1303 93l-150 7M1260 157l43 139M1154 296l32 125M167 793s313-286 301-443c-13-157-32-229-11-280M244 717l-15-177M371 569l187-85M463 398l-74-134M458 250l73-131M10 60s796 250 837 668M739 492s32 94 19 301M562 331s302 84 444 48M158 115s201 155 195 390M70 81s489 87 669-11M1015 4s-155 356-24 789M947 585s-11 93-100 207M968 159s-3 95 112 381M999 46S848 255 739 310M858 214l-193 22M805 264l42 256M10 296l655 296M129 350l60 219M562 545l222-74M607 569l37 179M214 388l175 360M353 677l129 17"/>
    <path fill="#0A2227" d="M523 142S465 69 647 6c0 0 71 110-124 136zM1164 404s54-76 166 80c0 0-85 99-166-80zM535 507s-42-83 149-108c0 0 48 121-149 108zM66 514s64-16 52 119c0 0-91 14-52-119zM1199 91s28 89-164 83c0 1-28-127 164-83z"/>
  </g>
  <defs>
    <clipPath id="clip0">
      <path fill="#fff" d="M-3 0h1420v799H-3z"/>
    </clipPath>
  </defs>
</svg>
