<svg width="1366" height="768" viewBox="0 0 1366 768" fill="none" xmlns="http://www.w3.org/2000/svg">
<path d="M1373.7 617.1C1373.7 617.1 1305.2 624.8 1212.6 633.3C1142.2 639.8 1057.8 646.6 978.8 650.9C880.4 656.2 790.5 657.4 746.4 648.6C620.4 623.4 462.9 585.6 349.6 617.1C236.3 648.6 3.5 630 3.5 630" stroke="#9954AB" stroke-width="16.113" stroke-miterlimit="10" stroke-linejoin="round"/>
<path d="M1212.6 633.3L1045.7 724.1" stroke="#9954AB" stroke-width="16.113" stroke-miterlimit="10" stroke-linejoin="round"/>
<path d="M511.4 605.1L387.7 521.5" stroke="#9954AB" stroke-width="16.113" stroke-miterlimit="10" stroke-linejoin="round"/>
<path d="M585.2 617.5L489.9 724.1" stroke="#9954AB" stroke-width="16.113" stroke-miterlimit="10" stroke-linejoin="round"/>
<path d="M349.6 617.099L277.2 525.699" stroke="#9954AB" stroke-width="16.113" stroke-miterlimit="10" stroke-linejoin="round"/>
<path d="M148.1 635.399L88.1997 724.099" stroke="#9954AB" stroke-width="16.113" stroke-miterlimit="10" stroke-linejoin="round"/>
<path d="M1371.5 306.399L1210.1 363.599L1020.5 430.799C1020.5 430.799 700.7 380.399 581.6 407.299C462.5 434.199 275.2 420.699 143.6 407.299C11.9999 393.899 -1.1001 457.699 -1.1001 457.699" stroke="#9954AB" stroke-width="16.141" stroke-miterlimit="10" stroke-linejoin="round"/>
<path d="M1210.1 363.6L1126.5 528.3" stroke="#9954AB" stroke-width="12.1058" stroke-miterlimit="10" stroke-linejoin="round"/>
<path d="M916.7 416.699L818.9 306.399" stroke="#9954AB" stroke-width="12.1058" stroke-miterlimit="10" stroke-linejoin="round"/>
<path d="M392 422.799L217.2 306.399" stroke="#9954AB" stroke-width="12.1058" stroke-miterlimit="10" stroke-linejoin="round"/>
<path d="M113.7 405.5L62.5 501.4" stroke="#9954AB" stroke-width="12.1058" stroke-miterlimit="10" stroke-linejoin="round"/>
<path d="M3.5 191.699C3.5 191.699 489.1 248.399 766.4 109.999C901.7 42.4994 1238.9 191.699 1238.9 191.699" stroke="#9954AB" stroke-width="17.0523" stroke-miterlimit="10" stroke-linecap="round" stroke-linejoin="round"/>
<path d="M156.5 203.2L308.7 120.6" stroke="#9954AB" stroke-width="12.7892" stroke-miterlimit="10" stroke-linecap="round" stroke-linejoin="round"/>
<path d="M401.1 196.8L525.3 252" stroke="#9954AB" stroke-width="12.7892" stroke-miterlimit="10" stroke-linecap="round" stroke-linejoin="round"/>
<path d="M1097.8 139L1200.7 283.6" stroke="#9954AB" stroke-width="12.7892" stroke-miterlimit="10" stroke-linecap="round" stroke-linejoin="round"/>
<path d="M1317.1 -0.900391C1317.1 -0.900391 1206.6 186.7 1097.8 306.5C989 426.3 1207.4 703.9 1207.4 703.9" stroke="#9954AB" stroke-width="16.113" stroke-miterlimit="10" stroke-linejoin="round"/>
<path d="M1126.5 578.5L982.5 693.5" stroke="#9954AB" stroke-width="16.113" stroke-miterlimit="10" stroke-linejoin="round"/>
<path d="M1097.8 306.399L937 542.699" stroke="#9954AB" stroke-width="16.113" stroke-miterlimit="10" stroke-linejoin="round"/>
<path d="M1079.1 467L1251 528.3" stroke="#9954AB" stroke-width="16.113" stroke-miterlimit="10" stroke-linejoin="round"/>
<path d="M1263.1 85.2998L1116.7 92.4998" stroke="#9954AB" stroke-width="16.113" stroke-miterlimit="10" stroke-linejoin="round"/>
<path d="M1221.1 147.8L1263.1 283.6" stroke="#9954AB" stroke-width="16.113" stroke-miterlimit="10" stroke-linejoin="round"/>
<path d="M1117.9 283.6L1149.3 405.5" stroke="#9954AB" stroke-width="16.113" stroke-miterlimit="10" stroke-linejoin="round"/>
<path d="M156.5 767.099C156.5 767.099 462 488.999 449.6 336.099C437.2 183.199 418.6 112.999 439.3 63.3994" stroke="#9954AB" stroke-width="16.113" stroke-miterlimit="10" stroke-linejoin="round"/>
<path d="M231.2 693.5L217.2 521.5" stroke="#9954AB" stroke-width="16.113" stroke-miterlimit="10" stroke-linejoin="round"/>
<path d="M354.9 549.7L537.6 467" stroke="#9954AB" stroke-width="16.113" stroke-miterlimit="10" stroke-linejoin="round"/>
<path d="M444.9 383.1L373.1 252" stroke="#9954AB" stroke-width="16.113" stroke-miterlimit="10" stroke-linejoin="round"/>
<path d="M440.1 238.9L511.4 111" stroke="#9954AB" stroke-width="16.113" stroke-miterlimit="10" stroke-linejoin="round"/>
<path d="M3.5 53.0996C3.5 53.0996 779.2 296.9 818.8 703.8" stroke="#9954AB" stroke-width="16.113" stroke-miterlimit="10" stroke-linejoin="round"/>
<path d="M714.2 474.3C714.2 474.3 744.9 566 732.5 767.1" stroke="#9954AB" stroke-width="16.113" stroke-miterlimit="10" stroke-linejoin="round"/>
<path d="M541.3 317.6C541.3 317.6 835.8 399.3 974.2 364.6" stroke="#9954AB" stroke-width="16.113" stroke-miterlimit="10" stroke-linejoin="round"/>
<path d="M148.1 106.699C148.1 106.699 344.2 257.599 338 486.899" stroke="#9954AB" stroke-width="16.113" stroke-miterlimit="10" stroke-linejoin="round"/>
<path d="M62.5 73.6C62.5 73.6 538.9 158.5 714.2 63.5" stroke="#9954AB" stroke-width="16.113" stroke-miterlimit="10" stroke-linejoin="round"/>
<path d="M982.5 -0.900391C982.5 -0.900391 831.5 345.6 959.2 767.1" stroke="#9954AB" stroke-width="16.113" stroke-miterlimit="10" stroke-linejoin="round"/>
<path d="M916.7 564.699C916.7 564.699 905.7 655.099 818.9 767.099" stroke="#9954AB" stroke-width="16.113" stroke-miterlimit="10" stroke-linejoin="round"/>
<path d="M937 150.1C937 150.1 934 241.9 1045.6 521.5" stroke="#9954AB" stroke-width="16.113" stroke-miterlimit="10" stroke-linejoin="round"/>
<path d="M967.3 39.8994C967.3 39.8994 819.7 243.099 714.2 296.899" stroke="#9954AB" stroke-width="16.113" stroke-miterlimit="10" stroke-linejoin="round"/>
<path d="M829.8 203.199L641.5 224.399" stroke="#9954AB" stroke-width="16.113" stroke-miterlimit="10" stroke-linejoin="round"/>
<path d="M778 252L818.9 501.4" stroke="#9954AB" stroke-width="16.113" stroke-miterlimit="10" stroke-linejoin="round"/>
<path d="M3.5 283.6L641.5 571.4" stroke="#9954AB" stroke-width="16.113" stroke-miterlimit="10" stroke-linejoin="round"/>
<path d="M119.2 335.8L178.5 549.7" stroke="#9954AB" stroke-width="16.113" stroke-miterlimit="10" stroke-linejoin="round"/>
<path d="M541.3 525.699L757.7 453.399" stroke="#9954AB" stroke-width="16.113" stroke-miterlimit="10" stroke-linejoin="round"/>
<path d="M585.2 549.699L621.2 724.099" stroke="#9954AB" stroke-width="16.113" stroke-miterlimit="10" stroke-linejoin="round"/>
<path d="M202.1 373.199L373.1 724.099" stroke="#9954AB" stroke-width="16.113" stroke-miterlimit="10" stroke-linejoin="round"/>
<path d="M338.1 655L463.2 670.8" stroke="#9954AB" stroke-width="16.113" stroke-miterlimit="10" stroke-linejoin="round"/>
<path d="M503 133.7C503 133.7 447 62.5996 624.2 1.09961C624.2 1.19961 693.6 107.8 503 133.7Z" fill="#9954AB"/>
<path d="M1128.1 388.1C1128.1 388.1 1180.4 314.2 1289.6 466.6C1289.7 466.6 1207.2 563.4 1128.1 388.1Z" fill="#9954AB"/>
<path d="M514.9 488.9C514.9 488.9 474.4 407.9 660.4 383.6C660.3 383.6 706.7 502 514.9 488.9Z" fill="#9954AB"/>
<path d="M58.6997 495.5C58.6997 495.5 120.6 480.2 108.6 611.8C108.6 611.8 19.9997 625.4 58.6997 495.5Z" fill="#9954AB"/>
<path d="M1162.4 83.7C1162.4 83.7 1189.7 170 1002.2 165C1002.2 165 974.9 40.7 1162.4 83.7Z" fill="#9954AB"/>
</svg>
