<svg width="1366" height="768" viewBox="0 0 1366 768" fill="none" xmlns="http://www.w3.org/2000/svg">
<g clip-path="url(#clip0)">
<path d="M-40.0999 608.5C-40.0999 608.5 30.2002 616.4 125.3 625.2C197.6 631.8 284.2 638.9 365.2 643.2C466.2 648.6 558.5 649.9 603.7 640.8C733 614.9 894.6 576.1 1011 608.5C1127.4 640.8 1366.2 621.8 1366.2 621.8" stroke="#0A2227" stroke-width="16.5389" stroke-miterlimit="10" stroke-linejoin="round"/>
<path d="M125.3 625.2L296.7 718.4" stroke="#0A2227" stroke-width="16.5389" stroke-miterlimit="10" stroke-linejoin="round"/>
<path d="M845.101 596.2L972.001 510.4" stroke="#0A2227" stroke-width="16.5389" stroke-miterlimit="10" stroke-linejoin="round"/>
<path d="M769.201 609L867.101 718.4" stroke="#0A2227" stroke-width="16.5389" stroke-miterlimit="10" stroke-linejoin="round"/>
<path d="M1011.1 608.5L1085.5 514.7" stroke="#0A2227" stroke-width="16.5389" stroke-miterlimit="10" stroke-linejoin="round"/>
<path d="M1218 627.4L1279.4 718.4" stroke="#0A2227" stroke-width="16.5389" stroke-miterlimit="10" stroke-linejoin="round"/>
<path d="M-37.7994 289.7L127.901 348.4L322.501 417.4C322.501 417.4 650.701 365.6 773.001 393.2C895.301 420.8 1087.5 407 1222.5 393.2C1357.5 379.4 1371.1 444.9 1371.1 444.9" stroke="#0A2227" stroke-width="16.5676" stroke-miterlimit="10" stroke-linejoin="round"/>
<path d="M127.9 348.4L213.7 517.4" stroke="#0A2227" stroke-width="12.4257" stroke-miterlimit="10" stroke-linejoin="round"/>
<path d="M429.101 402.9L529.501 289.7" stroke="#0A2227" stroke-width="12.4257" stroke-miterlimit="10" stroke-linejoin="round"/>
<path d="M967.601 409.1L1147.1 289.7" stroke="#0A2227" stroke-width="12.4257" stroke-miterlimit="10" stroke-linejoin="round"/>
<path d="M1253.2 391.3L1305.8 489.8" stroke="#0A2227" stroke-width="12.4257" stroke-miterlimit="10" stroke-linejoin="round"/>
<path d="M1366.3 171.9C1366.3 171.9 867.901 230.1 583.201 88.1004C444.401 18.8004 98.2008 171.9 98.2008 171.9" stroke="#0A2227" stroke-width="17.503" stroke-miterlimit="10" stroke-linecap="round" stroke-linejoin="round"/>
<path d="M1209.3 183.7L1053.1 99" stroke="#0A2227" stroke-width="13.1272" stroke-miterlimit="10" stroke-linecap="round" stroke-linejoin="round"/>
<path d="M958.2 177.1L830.8 233.8" stroke="#0A2227" stroke-width="13.1272" stroke-miterlimit="10" stroke-linecap="round" stroke-linejoin="round"/>
<path d="M243.101 117.8L137.501 266.3" stroke="#0A2227" stroke-width="13.1272" stroke-miterlimit="10" stroke-linecap="round" stroke-linejoin="round"/>
<path d="M18.0009 -25.7998C18.0009 -25.7998 131.401 166.8 243.101 289.7C354.801 412.6 130.601 697.6 130.601 697.6" stroke="#0A2227" stroke-width="16.5389" stroke-miterlimit="10" stroke-linejoin="round"/>
<path d="M213.701 569L361.501 686.9" stroke="#0A2227" stroke-width="16.5389" stroke-miterlimit="10" stroke-linejoin="round"/>
<path d="M243.1 289.7L408.2 532.2" stroke="#0A2227" stroke-width="16.5389" stroke-miterlimit="10" stroke-linejoin="round"/>
<path d="M262.301 454.4L85.9008 517.4" stroke="#0A2227" stroke-width="16.5389" stroke-miterlimit="10" stroke-linejoin="round"/>
<path d="M73.4001 62.7002L223.7 70.0002" stroke="#0A2227" stroke-width="16.5389" stroke-miterlimit="10" stroke-linejoin="round"/>
<path d="M116.601 126.9L73.4005 266.3" stroke="#0A2227" stroke-width="16.5389" stroke-miterlimit="10" stroke-linejoin="round"/>
<path d="M222.501 266.3L190.301 391.3" stroke="#0A2227" stroke-width="16.5389" stroke-miterlimit="10" stroke-linejoin="round"/>
<path d="M1209.3 762.5C1209.3 762.5 895.801 477 908.501 320.1C921.201 163.2 940.301 91.1002 919.101 40.2002" stroke="#0A2227" stroke-width="16.5389" stroke-miterlimit="10" stroke-linejoin="round"/>
<path d="M1132.6 686.9L1147.1 510.4" stroke="#0A2227" stroke-width="16.5389" stroke-miterlimit="10" stroke-linejoin="round"/>
<path d="M1005.7 539.3L818.2 454.4" stroke="#0A2227" stroke-width="16.5389" stroke-miterlimit="10" stroke-linejoin="round"/>
<path d="M913.301 368.3L987.001 233.8" stroke="#0A2227" stroke-width="16.5389" stroke-miterlimit="10" stroke-linejoin="round"/>
<path d="M918.2 220.4L845.1 89" stroke="#0A2227" stroke-width="16.5389" stroke-miterlimit="10" stroke-linejoin="round"/>
<path d="M1366.3 29.7002C1366.3 29.7002 570.101 279.9 529.401 697.6" stroke="#0A2227" stroke-width="16.5389" stroke-miterlimit="10" stroke-linejoin="round"/>
<path d="M636.9 461.9C636.9 461.9 605.4 556 618.1 762.5" stroke="#0A2227" stroke-width="16.5389" stroke-miterlimit="10" stroke-linejoin="round"/>
<path d="M814.4 301.1C814.4 301.1 512.1 385 370.1 349.4" stroke="#0A2227" stroke-width="16.5389" stroke-miterlimit="10" stroke-linejoin="round"/>
<path d="M1218 84.7002C1218 84.7002 1016.7 239.6 1023.1 474.9" stroke="#0A2227" stroke-width="16.5389" stroke-miterlimit="10" stroke-linejoin="round"/>
<path d="M1305.8 50.6002C1305.8 50.6002 816.801 137.8 636.901 40.2002" stroke="#0A2227" stroke-width="16.5389" stroke-miterlimit="10" stroke-linejoin="round"/>
<path d="M361.5 -25.7998C361.5 -25.7998 516.5 329.9 385.4 762.5" stroke="#0A2227" stroke-width="16.5389" stroke-miterlimit="10" stroke-linejoin="round"/>
<path d="M429.101 554.7C429.101 554.7 440.401 647.5 529.501 762.4" stroke="#0A2227" stroke-width="16.5389" stroke-miterlimit="10" stroke-linejoin="round"/>
<path d="M408.201 129.2C408.201 129.2 411.301 223.5 296.701 510.4" stroke="#0A2227" stroke-width="16.5389" stroke-miterlimit="10" stroke-linejoin="round"/>
<path d="M377.1 16C377.1 16 528.6 224.5 636.9 279.8" stroke="#0A2227" stroke-width="16.5389" stroke-miterlimit="10" stroke-linejoin="round"/>
<path d="M518.201 183.7L711.501 205.5" stroke="#0A2227" stroke-width="16.5389" stroke-miterlimit="10" stroke-linejoin="round"/>
<path d="M571.4 233.8L529.5 489.8" stroke="#0A2227" stroke-width="16.5389" stroke-miterlimit="10" stroke-linejoin="round"/>
<path d="M1366.3 266.3L711.501 561.6" stroke="#0A2227" stroke-width="16.5389" stroke-miterlimit="10" stroke-linejoin="round"/>
<path d="M1247.6 319.8L1186.8 539.3" stroke="#0A2227" stroke-width="16.5389" stroke-miterlimit="10" stroke-linejoin="round"/>
<path d="M814.4 514.7L592.2 440.5" stroke="#0A2227" stroke-width="16.5389" stroke-miterlimit="10" stroke-linejoin="round"/>
<path d="M769.2 539.3L732.3 718.4" stroke="#0A2227" stroke-width="16.5389" stroke-miterlimit="10" stroke-linejoin="round"/>
<path d="M1162.6 358.2L987.001 718.4" stroke="#0A2227" stroke-width="16.5389" stroke-miterlimit="10" stroke-linejoin="round"/>
<path d="M1022.9 647.4L894.5 663.7" stroke="#0A2227" stroke-width="16.5389" stroke-miterlimit="10" stroke-linejoin="round"/>
<path d="M853.7 112.4C853.7 112.4 911.2 39.3998 729.3 -23.7002C729.3 -23.7002 658.1 85.6998 853.7 112.4Z" fill="#0A2227" stroke="#0A2227" stroke-miterlimit="10"/>
<path d="M212 373.5C212 373.5 158.4 297.6 46.2 454.1C46.2 454 130.9 553.4 212 373.5Z" fill="#0A2227" stroke="#0A2227" stroke-miterlimit="10"/>
<path d="M841.5 477C841.5 477 883.1 393.9 692.2 368.9C692.2 368.8 644.5 490.4 841.5 477Z" fill="#0A2227" stroke="#0A2227" stroke-miterlimit="10"/>
<path d="M1309.7 483.7C1309.7 483.7 1246.1 468 1258.4 603.1C1258.4 603.1 1349.4 617 1309.7 483.7Z" fill="#0A2227" stroke="#0A2227" stroke-miterlimit="10"/>
<path d="M176.901 60.9998C176.901 60.9998 148.901 149.6 341.301 144.4C341.301 144.5 369.301 16.8998 176.901 60.9998Z" fill="#0A2227" stroke="#0A2227" stroke-miterlimit="10"/>
</g>
<defs>
<clipPath id="clip0">
<rect width="1420.2" height="798.6" transform="matrix(-1 0 0 1 1379.2 -30)" fill="white"/>
</clipPath>
</defs>
</svg>
